<svg id="visual" viewBox="0 0 960 540" width="960" height="540" xmlns="http://www.w3.org/2000/svg" xmlns:xlink="http://www.w3.org/1999/xlink" version="1.1"><rect x="0" y="0" width="960" height="540" fill="#001220"></rect><defs><linearGradient id="grad1_0" x1="43.8%" y1="0%" x2="100%" y2="100%"><stop offset="14.444444444444446%" stop-color="#001220" stop-opacity="1"></stop><stop offset="85.55555555555554%" stop-color="#001220" stop-opacity="1"></stop></linearGradient></defs><defs><linearGradient id="grad2_0" x1="0%" y1="0%" x2="56.3%" y2="100%"><stop offset="14.444444444444446%" stop-color="#001220" stop-opacity="1"></stop><stop offset="85.55555555555554%" stop-color="#001220" stop-opacity="1"></stop></linearGradient></defs><g transform="translate(960, 0)"><path d="M0 243C-31.8 233.8 -63.6 224.6 -85.7 206.9C-107.9 189.3 -120.4 163.3 -145 145C-169.5 126.6 -206.2 115.9 -224.5 93C-242.9 70.1 -242.9 35.1 -243 0L0 0Z" fill="#FBAE3C"></path></g><g transform="translate(0, 540)"><path d="M0 -243C19.3 -196.7 38.6 -150.3 53.2 -128.4C67.8 -106.5 77.6 -109 110.3 -110.3C143 -111.6 198.6 -111.6 224.5 -93C250.4 -74.4 246.7 -37.2 243 0L0 0Z" fill="#FBAE3C"></path></g></svg>